<svg width="180" height="49" viewBox="0 0 262 49" fill="none" xmlns="http://www.w3.org/2000/svg">
<path d="M9.85114 30.777C8.83847 30.777 7.8258 30.6627 6.81314 30.434C5.9638 31.022 5.53914 31.5447 5.53914 32.002C5.53914 32.6227 6.0128 33.0637 6.96014 33.325C7.90747 33.5863 9.41014 33.8313 11.4681 34.06C13.6568 34.2887 15.4535 34.55 16.8581 34.844C18.2628 35.138 19.4715 35.677 20.4841 36.461C21.5295 37.2123 22.0521 38.2903 22.0521 39.695C22.0521 41.2303 21.4315 42.7003 20.1901 44.105C18.9488 45.5423 17.3155 46.6857 15.2901 47.535C13.2648 48.417 11.1578 48.858 8.96914 48.858C6.3558 48.858 4.2488 48.221 2.64814 46.947C1.08014 45.7057 0.296137 44.0397 0.296137 41.949C0.75347 41.4917 1.4558 40.9363 2.40314 40.283C3.38314 39.6297 3.9548 39.2377 4.11814 39.107L5.19614 38.372V38.078C3.62814 37.784 2.40314 37.2123 1.52114 36.363C0.671804 35.481 0.21447 34.3703 0.149137 33.031C1.3578 31.757 2.69714 30.6627 4.16714 29.748V29.405C2.99114 28.7843 2.07647 27.9023 1.42314 26.759C0.80247 25.583 0.492137 24.26 0.492137 22.79C0.492137 21.0913 0.933137 19.556 1.81514 18.184C2.69714 16.7793 3.9058 15.685 5.44114 14.901C6.97647 14.117 8.7078 13.725 10.6351 13.725C11.4518 13.725 12.4481 13.823 13.6241 14.019C14.6041 14.1497 15.3065 14.215 15.7311 14.215C16.7438 14.1497 18.5078 13.7413 21.0231 12.99L22.5911 12.598L22.8851 12.843L22.2481 16.616C21.4641 16.7467 20.2718 16.8447 18.6711 16.91L18.4751 17.204C19.7491 18.576 20.3861 20.193 20.3861 22.055C20.3861 23.6883 19.9288 25.1747 19.0141 26.514C18.1321 27.8533 16.8908 28.8987 15.2901 29.65C13.6895 30.4013 11.8765 30.777 9.85114 30.777ZM10.6841 27.445C11.8601 27.445 12.7585 27.053 13.3791 26.269C13.9998 25.4523 14.3101 24.2763 14.3101 22.741C14.3101 21.1077 13.9508 19.8173 13.2321 18.87C12.5135 17.9227 11.5008 17.449 10.1941 17.449C7.80947 17.449 6.61714 19.0333 6.61714 22.202C6.61714 23.8027 6.96014 25.0767 7.64614 26.024C8.3648 26.9713 9.37747 27.445 10.6841 27.445ZM10.8801 45.183C12.4808 45.183 13.8038 44.84 14.8491 44.154C15.8945 43.468 16.4171 42.6023 16.4171 41.557C16.4171 41.0343 16.2048 40.626 15.7801 40.332C15.3881 40.038 14.6368 39.7767 13.5261 39.548C12.4155 39.3193 10.6678 39.0417 8.28314 38.715C7.8258 39.009 7.40114 39.499 7.00914 40.185C6.6498 40.871 6.47014 41.5243 6.47014 42.145C6.47014 43.0923 6.8458 43.8273 7.59714 44.35C8.38114 44.9053 9.47547 45.183 10.8801 45.183ZM25.3214 34.158C26.2687 34.0927 26.9057 33.8313 27.2324 33.374C27.5917 32.9167 27.7714 32.0673 27.7714 30.826V21.124C27.7714 19.9807 27.6244 19.213 27.3304 18.821C27.069 18.429 26.53 18.233 25.7134 18.233L24.7824 18.282L24.5374 17.939L24.7824 15.391C26.579 15.1297 28.392 14.8193 30.2214 14.46C32.0834 14.1007 33.2757 13.872 33.7984 13.774L34.2394 14.215C34.174 14.4763 34.076 15.0807 33.9454 16.028C33.8474 16.9753 33.782 17.89 33.7494 18.772L34.0434 18.968C35.056 17.4653 36.1667 16.2893 37.3754 15.44C38.6167 14.558 39.7927 14.117 40.9034 14.117C41.2954 14.117 41.6547 14.1497 41.9814 14.215C42.308 14.2477 42.5204 14.2803 42.6184 14.313L42.8144 14.705C42.7164 15.2603 42.553 16.4853 42.3244 18.38C42.0957 20.242 41.9324 22.006 41.8344 23.672L38.6004 23.868C38.6004 22.3 38.5024 21.271 38.3064 20.781C38.143 20.2583 37.7837 19.997 37.2284 19.997C36.7057 19.997 36.1504 20.193 35.5624 20.585C35.007 20.9443 34.4844 21.4507 33.9944 22.104C33.929 22.986 33.831 24.4723 33.7004 26.563C33.6024 28.621 33.537 30.2707 33.5044 31.512C33.5044 32.3613 33.635 32.9493 33.8964 33.276C34.1904 33.6027 34.6967 33.766 35.4154 33.766C35.938 33.766 36.4444 33.7497 36.9344 33.717C37.4244 33.6517 37.751 33.6027 37.9144 33.57L38.0614 33.864L37.5224 37.196C37.065 37.1633 36.1994 37.1143 34.9254 37.049C33.684 37.0163 32.41 37 31.1034 37C29.862 37 28.6044 37.0163 27.3304 37.049C26.089 37.1143 25.2887 37.1633 24.9294 37.196L25.3214 34.158ZM56.6481 22.839C56.6481 21.4343 56.2724 20.3563 55.5211 19.605C54.8024 18.821 53.7897 18.429 52.4831 18.429C51.6664 18.429 50.7027 18.6577 49.5921 19.115C48.5141 19.5397 47.5504 20.0787 46.7011 20.732L46.3091 20.487L45.3781 17.547C47.3054 16.469 49.1347 15.5707 50.8661 14.852C52.5974 14.1333 53.7897 13.774 54.4431 13.774C57.0237 13.774 59.0327 14.362 60.4701 15.538C61.9401 16.714 62.6751 18.3637 62.6751 20.487C62.6751 21.173 62.5281 22.6593 62.2341 24.946C61.8747 28.1147 61.6951 29.9767 61.6951 30.532C61.6951 31.1527 61.8421 31.6427 62.1361 32.002C62.4627 32.3287 62.8874 32.492 63.4101 32.492C64.0961 32.492 64.8801 32.2143 65.7621 31.659L66.4971 32.688C65.8437 33.8967 65.0597 34.9747 64.1451 35.922C63.2631 36.8367 62.4627 37.392 61.7441 37.588C60.2741 37.588 59.1144 37.2777 58.2651 36.657C57.4484 36.0037 56.9584 35.0563 56.7951 33.815L56.4521 33.668C55.3087 34.8113 54.2471 35.726 53.2671 36.412C52.2871 37.0653 51.5357 37.392 51.0131 37.392C49.7717 37.392 48.6284 37.0817 47.5831 36.461C46.5704 35.8403 45.7701 34.991 45.1821 33.913C44.5941 32.8023 44.3001 31.5773 44.3001 30.238C44.3001 29.1927 44.5614 28.3107 45.0841 27.592C45.6067 26.8407 46.2927 26.367 47.1421 26.171L56.5991 23.966L56.6481 22.839ZM51.3561 28.082C50.5721 28.3107 50.1801 28.8333 50.1801 29.65C50.1801 30.5973 50.4251 31.3323 50.9151 31.855C51.4377 32.3777 52.1564 32.639 53.0711 32.639C53.5284 32.639 54.0511 32.5247 54.6391 32.296C55.2271 32.0347 55.7987 31.6917 56.3541 31.267L56.4521 26.661L51.3561 28.082ZM85.8773 33.913C85.6487 34.109 85.126 34.501 84.3093 35.089C83.4927 35.677 82.529 36.2487 81.4183 36.804C80.3403 37.3267 79.3603 37.588 78.4783 37.588C75.1137 37.588 72.4677 36.5753 70.5403 34.55C68.613 32.5247 67.6493 29.7643 67.6493 26.269C67.6493 23.8517 68.1556 21.6957 69.1683 19.801C70.181 17.9063 71.5856 16.4363 73.3823 15.391C75.2117 14.313 77.286 13.774 79.6053 13.774C80.6833 13.774 81.6797 13.8557 82.5943 14.019C83.5417 14.1497 84.2767 14.2967 84.7993 14.46C85.3547 14.6233 85.6977 14.7377 85.8283 14.803L86.0243 15.244C85.9917 15.44 85.8937 15.8973 85.7303 16.616C85.5997 17.302 85.4527 18.2167 85.2893 19.36C85.126 20.4707 85.0117 21.6303 84.9463 22.839L81.7613 23.035V21.418C81.7613 20.3073 81.4837 19.458 80.9283 18.87C80.4056 18.2493 79.6707 17.939 78.7233 17.939C77.2207 17.939 76.0773 18.4943 75.2933 19.605C74.5093 20.7157 74.1173 22.3163 74.1173 24.407C74.1173 27.0857 74.5746 29.1273 75.4893 30.532C76.4367 31.9367 77.776 32.639 79.5073 32.639C80.2913 32.639 81.0753 32.541 81.8593 32.345C82.6433 32.1163 83.2803 31.8877 83.7703 31.659C84.2603 31.4303 84.5707 31.2833 84.7013 31.218L85.0933 31.365L85.8773 33.913ZM94.5476 25.975C94.6456 28.131 95.2173 29.8133 96.2626 31.022C97.3406 32.198 98.7943 32.786 100.624 32.786C101.538 32.786 102.437 32.688 103.319 32.492C104.201 32.2633 104.919 32.0347 105.475 31.806C106.03 31.5447 106.389 31.3813 106.553 31.316L106.896 31.463L107.729 33.962C107.729 33.9947 107.206 34.3377 106.161 34.991C105.148 35.6443 104.005 36.2487 102.731 36.804C101.489 37.3267 100.346 37.588 99.3006 37.588C95.838 37.588 93.1103 36.5753 91.1176 34.55C89.1576 32.5247 88.1776 29.7643 88.1776 26.269C88.1776 23.917 88.684 21.7937 89.6966 19.899C90.7093 18.0043 92.0976 16.518 93.8616 15.44C95.6256 14.3293 97.602 13.774 99.7906 13.774C105.311 13.774 108.072 16.5833 108.072 22.202C108.072 22.79 108.023 23.3617 107.925 23.917C107.827 24.4723 107.761 24.8317 107.729 24.995L107.141 25.534H94.5476V25.975ZM101.114 22.447C101.473 22.3817 101.718 22.2837 101.849 22.153C101.979 22.0223 102.045 21.7447 102.045 21.32C102.045 18.9027 101.016 17.694 98.9576 17.694C97.6836 17.694 96.6546 18.135 95.8706 19.017C95.1193 19.8663 94.6783 21.124 94.5476 22.79L101.114 22.447ZM139.132 18.38C139.132 17.988 139.018 17.7267 138.789 17.596C138.593 17.4327 138.201 17.351 137.613 17.351H136.29L136.094 17.057L136.486 14.264C136.813 14.264 137.466 14.2803 138.446 14.313C139.426 14.3457 140.504 14.362 141.68 14.362L146.139 14.313L145.747 17.351C145.029 17.449 144.506 17.6777 144.179 18.037C143.885 18.3637 143.526 19.0823 143.101 20.193L137.074 37L130.9 37.735C130.737 36.7877 130.067 34.06 128.891 29.552L127.862 25.583H127.323L123.648 37L117.278 37.735C116.886 36.1997 116.07 33.2107 114.828 28.768C113.62 24.3253 112.787 21.3363 112.329 19.801C112.068 18.9843 111.692 18.38 111.202 17.988C110.712 17.596 110.075 17.3837 109.291 17.351L109.193 17.106L109.536 14.313L114.142 14.362C115.482 14.362 116.821 14.313 118.16 14.215C119.5 14.117 120.365 14.0517 120.757 14.019L120.855 14.264L120.463 17.155C119.451 17.253 118.797 17.3837 118.503 17.547C118.242 17.6777 118.111 17.9717 118.111 18.429C118.111 18.9843 118.52 20.9933 119.336 24.456C120.153 27.9187 120.725 30.2707 121.051 31.512H121.541C122.097 30.0747 122.799 28.0493 123.648 25.436C124.498 22.8227 125.118 20.8137 125.51 19.409C125.347 18.6577 125.069 18.135 124.677 17.841C124.318 17.547 123.697 17.4 122.815 17.4L122.668 17.106L123.109 14.313L127.617 14.362C128.957 14.362 130.28 14.3293 131.586 14.264C132.893 14.166 133.742 14.1007 134.134 14.068L134.232 14.313L133.791 17.204C132.779 17.302 132.142 17.4327 131.88 17.596C131.619 17.7267 131.488 18.0043 131.488 18.429C131.488 18.9843 131.897 20.9933 132.713 24.456C133.53 27.9187 134.085 30.2707 134.379 31.512H134.869C137.711 23.6393 139.132 19.262 139.132 18.38ZM156.848 37.588C154.79 37.588 152.977 37.1307 151.409 36.216C149.841 35.2687 148.632 33.9457 147.783 32.247C146.933 30.5483 146.509 28.5883 146.509 26.367C146.509 23.8843 146.999 21.6957 147.979 19.801C148.991 17.9063 150.396 16.4363 152.193 15.391C153.989 14.313 156.047 13.774 158.367 13.774C161.535 13.774 164.034 14.7867 165.864 16.812C167.726 18.8047 168.657 21.5323 168.657 24.995C168.657 27.4777 168.167 29.6663 167.187 31.561C166.207 33.4557 164.818 34.942 163.022 36.02C161.225 37.0653 159.167 37.588 156.848 37.588ZM157.877 33.815C160.653 33.815 162.042 31.6263 162.042 27.249C162.042 24.1783 161.617 21.8753 160.768 20.34C159.951 18.772 158.759 17.988 157.191 17.988C155.819 17.988 154.773 18.5433 154.055 19.654C153.369 20.7647 153.026 22.398 153.026 24.554C153.026 27.6247 153.434 29.944 154.251 31.512C155.1 33.0473 156.309 33.815 157.877 33.815ZM172.034 34.158C172.982 34.0927 173.619 33.8313 173.945 33.374C174.305 32.9167 174.484 32.0673 174.484 30.826V21.124C174.484 19.9807 174.337 19.213 174.043 18.821C173.782 18.429 173.243 18.233 172.426 18.233L171.495 18.282L171.25 17.939L171.495 15.391C173.292 15.1297 175.105 14.8193 176.934 14.46C178.796 14.1007 179.989 13.872 180.511 13.774L180.952 14.215C180.887 14.4763 180.789 15.0807 180.658 16.028C180.56 16.9753 180.495 17.89 180.462 18.772L180.756 18.968C181.769 17.4653 182.88 16.2893 184.088 15.44C185.33 14.558 186.506 14.117 187.616 14.117C188.008 14.117 188.368 14.1497 188.694 14.215C189.021 14.2477 189.233 14.2803 189.331 14.313L189.527 14.705C189.429 15.2603 189.266 16.4853 189.037 18.38C188.809 20.242 188.645 22.006 188.547 23.672L185.313 23.868C185.313 22.3 185.215 21.271 185.019 20.781C184.856 20.2583 184.497 19.997 183.941 19.997C183.419 19.997 182.863 20.193 182.275 20.585C181.72 20.9443 181.197 21.4507 180.707 22.104C180.642 22.986 180.544 24.4723 180.413 26.563C180.315 28.621 180.25 30.2707 180.217 31.512C180.217 32.3613 180.348 32.9493 180.609 33.276C180.903 33.6027 181.41 33.766 182.128 33.766C182.651 33.766 183.157 33.7497 183.647 33.717C184.137 33.6517 184.464 33.6027 184.627 33.57L184.774 33.864L184.235 37.196C183.778 37.1633 182.912 37.1143 181.638 37.049C180.397 37.0163 179.123 37 177.816 37C176.575 37 175.317 37.0163 174.043 37.049C172.802 37.1143 172.002 37.1633 171.642 37.196L172.034 34.158ZM193.5 20.683C193.5 19.6377 193.321 18.9517 192.961 18.625C192.602 18.2657 191.9 18.0697 190.854 18.037L190.364 17.694L190.658 15.244C191.932 14.656 193.19 13.97 194.431 13.186C195.673 12.402 196.702 11.716 197.518 11.128C198.335 10.5073 198.841 10.1153 199.037 9.952L200.409 10.687C200.377 10.883 200.295 11.373 200.164 12.157C200.066 12.9083 199.968 13.8393 199.87 14.95L205.603 14.803L205.799 15.048L205.309 18.38L199.576 18.233C199.38 21.075 199.282 24.603 199.282 28.817C199.282 30.189 199.511 31.1853 199.968 31.806C200.458 32.4267 201.259 32.737 202.369 32.737C202.957 32.737 203.578 32.639 204.231 32.443C204.917 32.2143 205.26 32.0837 205.26 32.051L205.897 33.668C205.701 33.864 205.244 34.2723 204.525 34.893C203.807 35.5137 203.023 36.118 202.173 36.706C201.324 37.294 200.671 37.588 200.213 37.588C197.894 37.588 196.195 37.1143 195.117 36.167C194.039 35.187 193.5 33.6517 193.5 31.561V20.683ZM207.614 34.109C208.496 34.011 209.1 33.7823 209.427 33.423C209.786 33.031 209.966 32.3777 209.966 31.463V7.747C209.966 6.73433 209.819 6.032 209.525 5.64C209.231 5.248 208.676 5.052 207.859 5.052H206.732L206.536 4.807L206.83 2.21C208.692 1.98133 210.685 1.68733 212.808 1.328C214.931 0.968665 216.303 0.739999 216.924 0.641998L217.267 1.573C216.94 1.965 216.663 3.61467 216.434 6.522C216.205 9.42933 216.026 13.2677 215.895 18.037C216.875 17.1223 218.035 16.1913 219.374 15.244C220.746 14.264 221.742 13.774 222.363 13.774C224.748 13.774 226.577 14.3293 227.851 15.44C229.125 16.518 229.762 18.086 229.762 20.144C229.762 20.9607 229.615 22.692 229.321 25.338C228.994 28.6047 228.831 30.7117 228.831 31.659C228.831 32.4757 228.945 33.0637 229.174 33.423C229.435 33.7823 229.844 33.962 230.399 33.962L231.869 33.913L231.967 34.109L231.477 37.147C231.085 37.1143 230.366 37.0817 229.321 37.049C228.308 37.0163 227.263 37 226.185 37C225.401 37 224.388 37.049 223.147 37.147C221.906 37.2777 221.089 37.3593 220.697 37.392L220.942 34.305C221.759 34.109 222.33 33.815 222.657 33.423C223.016 32.9983 223.196 32.3777 223.196 31.561L223.392 23.182C223.425 20.34 222.396 18.919 220.305 18.919C219.031 18.919 217.545 19.5887 215.846 20.928C215.781 23.182 215.748 26.7917 215.748 31.757C215.748 32.5737 215.846 33.1453 216.042 33.472C216.271 33.7987 216.646 33.962 217.169 33.962C217.43 33.962 217.675 33.9457 217.904 33.913C218.165 33.8803 218.329 33.864 218.394 33.864L218.541 34.158L218.051 37.147C217.692 37.1143 216.989 37.0817 215.944 37.049C214.899 37.0163 213.821 37 212.71 37C211.436 37 210.276 37.0163 209.231 37.049C208.218 37.0817 207.549 37.1143 207.222 37.147L207.614 34.109ZM241.372 37.588C240.196 37.588 239.118 37.49 238.138 37.294C237.191 37.098 236.423 36.902 235.835 36.706C235.28 36.4773 234.937 36.3303 234.806 36.265L234.512 35.726C234.643 34.8767 234.757 33.864 234.855 32.688C234.986 31.512 235.084 30.385 235.149 29.307L237.942 29.013C238.008 32.3123 239.445 33.962 242.254 33.962C243.169 33.962 243.937 33.766 244.557 33.374C245.178 32.9493 245.488 32.4267 245.488 31.806C245.488 31.1527 245.162 30.5647 244.508 30.042C243.888 29.5193 242.597 28.8007 240.637 27.886C238.677 26.9713 237.24 26.0077 236.325 24.995C235.443 23.9497 235.002 22.7247 235.002 21.32C235.002 19.85 235.427 18.5433 236.276 17.4C237.158 16.2567 238.367 15.3747 239.902 14.754C241.47 14.1007 243.234 13.774 245.194 13.774C246.142 13.774 247.024 13.8393 247.84 13.97C248.657 14.1007 249.294 14.2477 249.751 14.411C250.241 14.5417 250.552 14.6233 250.682 14.656L250.976 15.195C250.911 15.5543 250.764 16.371 250.535 17.645C250.339 18.8863 250.176 20.193 250.045 21.565L247.252 21.712L247.301 20.879C247.269 19.7357 246.975 18.9027 246.419 18.38C245.897 17.8247 245.064 17.547 243.92 17.547C243.071 17.547 242.352 17.743 241.764 18.135C241.209 18.527 240.931 19.0333 240.931 19.654C240.931 20.2747 241.193 20.8463 241.715 21.369C242.238 21.8917 243.087 22.4307 244.263 22.986C246.191 23.9007 247.661 24.7173 248.673 25.436C249.719 26.1547 250.437 26.8897 250.829 27.641C251.254 28.3597 251.466 29.2253 251.466 30.238C251.466 31.5773 251.009 32.8187 250.094 33.962C249.212 35.0727 248.004 35.9547 246.468 36.608C244.933 37.2613 243.234 37.588 241.372 37.588ZM257.819 37.539C256.643 37.539 255.745 37.2123 255.124 36.559C254.503 35.873 254.193 34.9583 254.193 33.815C254.193 32.639 254.552 31.6753 255.271 30.924C255.99 30.1727 256.953 29.797 258.162 29.797C259.305 29.797 260.204 30.14 260.857 30.826C261.51 31.4793 261.837 32.3613 261.837 33.472C261.837 34.6807 261.461 35.6607 260.71 36.412C259.991 37.1633 259.028 37.539 257.819 37.539Z" fill="#FCEFEE"/>
</svg>
